# xmcd
#
# Track frame offsets:
#	150
#	11771
#	26752
#	42246
#	60228
#	73672
#	87546
#	100311
#	114287
#	130490
#	142217
#	152970
#	168762
#	184406
#	200182
#	213363
#
# Disc length: 3045 seconds
#
# Revision: 0
# Processed by: cddbd v1.5.2PL0 Copyright (c) Steve Scherf et al.
# Submitted via: EasyCDDAExtractor 16.0.6.1
#
DISCID=ef0be310
DTITLE=Συλλογικός δίσκος - Τα πιο όμορφα τραγούδια 1928-1968 1
DYEAR=2010
DGENRE=Ελαφρά
TTITLE0=Μπελίντα Καίτη - Λατρεία μου [Γιώργος Κατσαρός-Πυθαγόρας]
TTITLE1=Παναγόπουλος Σώτος - Χαρά μου [Τάκης Μωράκης-Γ. Οικονομίδης/Κ. Πρετεντ
TTITLE1=έρης]
TTITLE2=Τρίο Κιτάρα - Πρίμο σεκόντο [Μενέλαος Θεοφανίδης-Κ. Πρετεντέρης]
TTITLE3=Παναγόπουλος Σώτος - Κάποιο δειλινό [Γιώργος Μουζάκης]
TTITLE4=Μαρούδας Τώνης - Όνειρα, όνειρα [Λυκούργος Μαρκέας-Θάνος Σοφός]
TTITLE5=Σίβα Μάριον - Αλλοίμονο στα μάτια που δεν κλαίνε [Αλ. Σπάθης-Γ. Οικονο
TTITLE5=μίδης]
TTITLE6=Παναγόπουλος Σώτος - Μεγάλε μου έρωτα [Στ. Ρουχωτάς-Γ. Οικονομίδης/Κ. 
TTITLE6=Πρετεντέρης]
TTITLE7=Μπελίντα Καίτη - Χτύπα καρδιά μου [Λυκ. Μαρκέας-Γ.Ασημακ/λος, Β.Σπυρ/λ
TTITLE7=ος, Π.Παπαδούκας]
TTITLE8=Παναγόπουλος Σώτος - Ένας φίλος [Γιώργος Μουζάκης-Φ. Αρία]
TTITLE9=Κωνσταντοπούλου Νάντια - Να πιω απ' το ποτήρι σου [Ανδρ. Χατζηαποστόλο
TTITLE9=υ-Τάκης Σωτήρχος]
TTITLE10=Πολυμέρης Φώτης - Γέλα, αγάπα και τραγούδα [Φώτης Πολυμέρης]
TTITLE11=Μαρούδας Τώνης-Τρίο Κιτάρα - Άσ' τα τα μαλάκια σου [Μιχ. Σουγιούλ-Αλ.
TTITLE11=Σακελλάριος/Χ.Γιαννακόπουλος]
TTITLE12=Βέμπο Σοφία - Σ' αγαπώ και μ' αρέσει η ζωή [Μεν. Θεοφανίδης-Μίμης Τρα
TTITLE12=ϊφόρος]
TTITLE13=Μπερίντα Καίτη-Δήμας Φώτης - Η συνείδηση [Αλέκος Σπάθης-Ρ. Ζαλοκώστα]
TTITLE14=Μόλλυ Νίτσα - Εγώ θα σ' αγαπώ [Γιώργος Μουζάκης-Κ. Κοφινιώτης]
TTITLE15=Ευστρατοπούλου Κούλα - Πάμε σαν άλλοτε [Κ.Γιαννίδης-Χ.Γιαννακόπουλος/
TTITLE15=Αλ.Σακελλάριος]
EXTD=
EXTT0=
EXTT1=
EXTT2=
EXTT3=
EXTT4=
EXTT5=
EXTT6=
EXTT7=
EXTT8=
EXTT9=
EXTT10=
EXTT11=
EXTT12=
EXTT13=
EXTT14=
EXTT15=
PLAYORDER=
